<mxfile host="app.diagrams.net" agent="Mozilla/5.0 (Windows NT 10.0; Win64; x64) AppleWebKit/537.36 (KHTML, like Gecko) Chrome/137.0.0.0 Safari/537.36" version="27.1.6" pages="2">
  <diagram name="Page-1" id="9f46799a-70d6-7492-0946-bef42562c5a5">
    <mxGraphModel dx="925" dy="556" grid="1" gridSize="10" guides="1" tooltips="1" connect="1" arrows="1" fold="1" page="1" pageScale="1" pageWidth="1100" pageHeight="850" background="none" math="0" shadow="0">
      <root>
        <mxCell id="0" />
        <mxCell id="1" parent="0" />
        <mxCell id="b4Exxk_b9oZQekzgu2nN-9" value="Repuesto" style="rounded=0;whiteSpace=wrap;html=1;" vertex="1" parent="1">
          <mxGeometry x="160" y="140" width="120" height="60" as="geometry" />
        </mxCell>
        <mxCell id="b4Exxk_b9oZQekzgu2nN-10" value="Categoria" style="rounded=0;whiteSpace=wrap;html=1;" vertex="1" parent="1">
          <mxGeometry x="500" y="140" width="120" height="60" as="geometry" />
        </mxCell>
        <mxCell id="b4Exxk_b9oZQekzgu2nN-11" value="Marcas" style="rounded=0;whiteSpace=wrap;html=1;" vertex="1" parent="1">
          <mxGeometry x="500" y="390" width="120" height="60" as="geometry" />
        </mxCell>
        <mxCell id="b4Exxk_b9oZQekzgu2nN-12" value="UsuariosAdmin" style="rounded=0;whiteSpace=wrap;html=1;" vertex="1" parent="1">
          <mxGeometry x="750" y="260" width="120" height="60" as="geometry" />
        </mxCell>
        <mxCell id="b4Exxk_b9oZQekzgu2nN-13" value="Nombre" style="ellipse;whiteSpace=wrap;html=1;" vertex="1" parent="1">
          <mxGeometry x="40" y="200" width="75" height="50" as="geometry" />
        </mxCell>
        <mxCell id="b4Exxk_b9oZQekzgu2nN-21" style="edgeStyle=orthogonalEdgeStyle;rounded=0;orthogonalLoop=1;jettySize=auto;html=1;exitX=1;exitY=1;exitDx=0;exitDy=0;entryX=0;entryY=0.25;entryDx=0;entryDy=0;endArrow=none;startFill=0;" edge="1" parent="1" source="b4Exxk_b9oZQekzgu2nN-14" target="b4Exxk_b9oZQekzgu2nN-9">
          <mxGeometry relative="1" as="geometry" />
        </mxCell>
        <mxCell id="b4Exxk_b9oZQekzgu2nN-14" value="Descripción" style="ellipse;whiteSpace=wrap;html=1;" vertex="1" parent="1">
          <mxGeometry x="40" y="70" width="75" height="50" as="geometry" />
        </mxCell>
        <mxCell id="b4Exxk_b9oZQekzgu2nN-15" value="Precio" style="ellipse;whiteSpace=wrap;html=1;" vertex="1" parent="1">
          <mxGeometry x="130" y="20" width="75" height="50" as="geometry" />
        </mxCell>
        <mxCell id="b4Exxk_b9oZQekzgu2nN-19" style="edgeStyle=orthogonalEdgeStyle;rounded=0;orthogonalLoop=1;jettySize=auto;html=1;entryX=0.5;entryY=0;entryDx=0;entryDy=0;endArrow=none;startFill=0;" edge="1" parent="1" source="b4Exxk_b9oZQekzgu2nN-16" target="b4Exxk_b9oZQekzgu2nN-10">
          <mxGeometry relative="1" as="geometry" />
        </mxCell>
        <mxCell id="b4Exxk_b9oZQekzgu2nN-16" value="Nombre" style="ellipse;whiteSpace=wrap;html=1;" vertex="1" parent="1">
          <mxGeometry x="522.5" y="10" width="75" height="50" as="geometry" />
        </mxCell>
        <mxCell id="b4Exxk_b9oZQekzgu2nN-18" style="edgeStyle=orthogonalEdgeStyle;rounded=0;orthogonalLoop=1;jettySize=auto;html=1;entryX=0.5;entryY=1;entryDx=0;entryDy=0;endArrow=none;startFill=0;" edge="1" parent="1" source="b4Exxk_b9oZQekzgu2nN-17" target="b4Exxk_b9oZQekzgu2nN-11">
          <mxGeometry relative="1" as="geometry" />
        </mxCell>
        <mxCell id="b4Exxk_b9oZQekzgu2nN-17" value="Nombre" style="ellipse;whiteSpace=wrap;html=1;" vertex="1" parent="1">
          <mxGeometry x="365" y="400" width="75" height="50" as="geometry" />
        </mxCell>
        <mxCell id="b4Exxk_b9oZQekzgu2nN-20" style="rounded=0;orthogonalLoop=1;jettySize=auto;html=1;exitX=1;exitY=1;exitDx=0;exitDy=0;entryX=0.576;entryY=0.027;entryDx=0;entryDy=0;entryPerimeter=0;strokeColor=default;endArrow=none;startFill=0;" edge="1" parent="1" source="b4Exxk_b9oZQekzgu2nN-15" target="b4Exxk_b9oZQekzgu2nN-9">
          <mxGeometry relative="1" as="geometry" />
        </mxCell>
        <mxCell id="b4Exxk_b9oZQekzgu2nN-22" style="edgeStyle=orthogonalEdgeStyle;rounded=0;orthogonalLoop=1;jettySize=auto;html=1;entryX=0.39;entryY=0.988;entryDx=0;entryDy=0;entryPerimeter=0;endArrow=none;startFill=0;" edge="1" parent="1" source="b4Exxk_b9oZQekzgu2nN-13" target="b4Exxk_b9oZQekzgu2nN-9">
          <mxGeometry relative="1" as="geometry" />
        </mxCell>
        <mxCell id="b4Exxk_b9oZQekzgu2nN-24" style="edgeStyle=orthogonalEdgeStyle;rounded=0;orthogonalLoop=1;jettySize=auto;html=1;exitX=0;exitY=0.5;exitDx=0;exitDy=0;endArrow=none;startFill=0;" edge="1" parent="1" source="b4Exxk_b9oZQekzgu2nN-23" target="b4Exxk_b9oZQekzgu2nN-9">
          <mxGeometry relative="1" as="geometry" />
        </mxCell>
        <mxCell id="b4Exxk_b9oZQekzgu2nN-25" style="edgeStyle=orthogonalEdgeStyle;rounded=0;orthogonalLoop=1;jettySize=auto;html=1;endArrow=none;startFill=0;" edge="1" parent="1" source="b4Exxk_b9oZQekzgu2nN-23" target="b4Exxk_b9oZQekzgu2nN-10">
          <mxGeometry relative="1" as="geometry" />
        </mxCell>
        <mxCell id="b4Exxk_b9oZQekzgu2nN-23" value="Tiene" style="rhombus;whiteSpace=wrap;html=1;" vertex="1" parent="1">
          <mxGeometry x="350" y="130" width="80" height="80" as="geometry" />
        </mxCell>
        <mxCell id="b4Exxk_b9oZQekzgu2nN-26" value="1" style="text;html=1;align=center;verticalAlign=middle;whiteSpace=wrap;rounded=0;" vertex="1" parent="1">
          <mxGeometry x="270" y="140" width="60" height="30" as="geometry" />
        </mxCell>
        <mxCell id="b4Exxk_b9oZQekzgu2nN-27" value="1" style="text;html=1;align=center;verticalAlign=middle;whiteSpace=wrap;rounded=0;" vertex="1" parent="1">
          <mxGeometry x="440" y="140" width="60" height="30" as="geometry" />
        </mxCell>
        <mxCell id="b4Exxk_b9oZQekzgu2nN-28" value="1" style="text;html=1;align=center;verticalAlign=middle;whiteSpace=wrap;rounded=0;" vertex="1" parent="1">
          <mxGeometry x="440" y="170" width="60" height="30" as="geometry" />
        </mxCell>
        <mxCell id="b4Exxk_b9oZQekzgu2nN-29" value="N" style="text;html=1;align=center;verticalAlign=middle;whiteSpace=wrap;rounded=0;" vertex="1" parent="1">
          <mxGeometry x="270" y="170" width="60" height="30" as="geometry" />
        </mxCell>
        <mxCell id="b4Exxk_b9oZQekzgu2nN-30" value="1.Refrigeradora&lt;div&gt;&lt;span style=&quot;background-color: transparent; color: light-dark(rgb(0, 0, 0), rgb(255, 255, 255));&quot;&gt;2.Cocina&lt;/span&gt;&lt;div&gt;3.Lavadora&lt;/div&gt;&lt;/div&gt;" style="text;html=1;align=center;verticalAlign=middle;whiteSpace=wrap;rounded=0;" vertex="1" parent="1">
          <mxGeometry x="630" y="140" width="90" height="50" as="geometry" />
        </mxCell>
        <mxCell id="b4Exxk_b9oZQekzgu2nN-32" style="edgeStyle=orthogonalEdgeStyle;rounded=0;orthogonalLoop=1;jettySize=auto;html=1;endArrow=none;startFill=0;" edge="1" parent="1" source="b4Exxk_b9oZQekzgu2nN-31" target="b4Exxk_b9oZQekzgu2nN-10">
          <mxGeometry relative="1" as="geometry" />
        </mxCell>
        <mxCell id="b4Exxk_b9oZQekzgu2nN-34" style="edgeStyle=orthogonalEdgeStyle;rounded=0;orthogonalLoop=1;jettySize=auto;html=1;entryX=0.5;entryY=0;entryDx=0;entryDy=0;endArrow=none;startFill=0;" edge="1" parent="1" source="b4Exxk_b9oZQekzgu2nN-31" target="b4Exxk_b9oZQekzgu2nN-11">
          <mxGeometry relative="1" as="geometry" />
        </mxCell>
        <mxCell id="b4Exxk_b9oZQekzgu2nN-31" value="Pertenece" style="rhombus;whiteSpace=wrap;html=1;" vertex="1" parent="1">
          <mxGeometry x="520" y="260" width="80" height="80" as="geometry" />
        </mxCell>
        <mxCell id="b4Exxk_b9oZQekzgu2nN-40" style="edgeStyle=orthogonalEdgeStyle;rounded=0;orthogonalLoop=1;jettySize=auto;html=1;exitX=0.5;exitY=1;exitDx=0;exitDy=0;entryX=0.75;entryY=0;entryDx=0;entryDy=0;endArrow=none;startFill=0;" edge="1" parent="1" source="b4Exxk_b9oZQekzgu2nN-36" target="b4Exxk_b9oZQekzgu2nN-12">
          <mxGeometry relative="1" as="geometry" />
        </mxCell>
        <mxCell id="b4Exxk_b9oZQekzgu2nN-36" value="Usuario" style="ellipse;whiteSpace=wrap;html=1;" vertex="1" parent="1">
          <mxGeometry x="795" y="140" width="75" height="50" as="geometry" />
        </mxCell>
        <mxCell id="b4Exxk_b9oZQekzgu2nN-38" value="Contraseña" style="ellipse;whiteSpace=wrap;html=1;" vertex="1" parent="1">
          <mxGeometry x="810" y="400" width="75" height="50" as="geometry" />
        </mxCell>
        <mxCell id="b4Exxk_b9oZQekzgu2nN-39" style="edgeStyle=orthogonalEdgeStyle;rounded=0;orthogonalLoop=1;jettySize=auto;html=1;entryX=0.855;entryY=1.027;entryDx=0;entryDy=0;entryPerimeter=0;endArrow=none;startFill=0;" edge="1" parent="1" source="b4Exxk_b9oZQekzgu2nN-38" target="b4Exxk_b9oZQekzgu2nN-12">
          <mxGeometry relative="1" as="geometry" />
        </mxCell>
        <mxCell id="b4Exxk_b9oZQekzgu2nN-41" value="1" style="text;html=1;align=center;verticalAlign=middle;whiteSpace=wrap;rounded=0;" vertex="1" parent="1">
          <mxGeometry x="550" y="200" width="60" height="30" as="geometry" />
        </mxCell>
        <mxCell id="b4Exxk_b9oZQekzgu2nN-42" value="N" style="text;html=1;align=center;verticalAlign=middle;whiteSpace=wrap;rounded=0;" vertex="1" parent="1">
          <mxGeometry x="550" y="360" width="60" height="30" as="geometry" />
        </mxCell>
        <mxCell id="b4Exxk_b9oZQekzgu2nN-43" value="1" style="text;html=1;align=center;verticalAlign=middle;whiteSpace=wrap;rounded=0;" vertex="1" parent="1">
          <mxGeometry x="510" y="360" width="60" height="30" as="geometry" />
        </mxCell>
        <mxCell id="b4Exxk_b9oZQekzgu2nN-44" value="N" style="text;html=1;align=center;verticalAlign=middle;whiteSpace=wrap;rounded=0;" vertex="1" parent="1">
          <mxGeometry x="510" y="200" width="60" height="30" as="geometry" />
        </mxCell>
        <mxCell id="b4Exxk_b9oZQekzgu2nN-46" style="edgeStyle=orthogonalEdgeStyle;rounded=0;orthogonalLoop=1;jettySize=auto;html=1;entryX=0;entryY=0;entryDx=0;entryDy=0;endArrow=none;startFill=0;" edge="1" parent="1" source="b4Exxk_b9oZQekzgu2nN-45" target="b4Exxk_b9oZQekzgu2nN-26">
          <mxGeometry relative="1" as="geometry" />
        </mxCell>
        <mxCell id="b4Exxk_b9oZQekzgu2nN-45" value="Img" style="ellipse;whiteSpace=wrap;html=1;" vertex="1" parent="1">
          <mxGeometry x="230" y="20" width="75" height="50" as="geometry" />
        </mxCell>
      </root>
    </mxGraphModel>
  </diagram>
  <diagram id="ZABOTi0K41MTmL6FtUB1" name="Página-2">
    <mxGraphModel dx="925" dy="556" grid="1" gridSize="10" guides="1" tooltips="1" connect="1" arrows="1" fold="1" page="1" pageScale="1" pageWidth="827" pageHeight="1169" math="0" shadow="0">
      <root>
        <mxCell id="0" />
        <mxCell id="1" parent="0" />
        <mxCell id="HhGgc7SGEXc1hb3WqnRq-9" style="edgeStyle=orthogonalEdgeStyle;rounded=0;orthogonalLoop=1;jettySize=auto;html=1;exitX=1;exitY=0.5;exitDx=0;exitDy=0;entryX=0;entryY=0.5;entryDx=0;entryDy=0;" edge="1" parent="1" source="KtAOR1NpKuT5bWM6tSqL-1" target="HhGgc7SGEXc1hb3WqnRq-2">
          <mxGeometry relative="1" as="geometry" />
        </mxCell>
        <mxCell id="KtAOR1NpKuT5bWM6tSqL-1" value="Repuestos" style="swimlane;whiteSpace=wrap;html=1;startSize=23;" vertex="1" parent="1">
          <mxGeometry x="30" y="70" width="200" height="200" as="geometry" />
        </mxCell>
        <mxCell id="KtAOR1NpKuT5bWM6tSqL-2" value="Nombre&amp;nbsp;" style="text;html=1;align=center;verticalAlign=middle;resizable=0;points=[];autosize=1;strokeColor=none;fillColor=none;" vertex="1" parent="KtAOR1NpKuT5bWM6tSqL-1">
          <mxGeometry x="60" y="50" width="70" height="30" as="geometry" />
        </mxCell>
        <mxCell id="KtAOR1NpKuT5bWM6tSqL-3" value="Descripcion" style="text;html=1;align=center;verticalAlign=middle;resizable=0;points=[];autosize=1;strokeColor=none;fillColor=none;" vertex="1" parent="KtAOR1NpKuT5bWM6tSqL-1">
          <mxGeometry x="50" y="80" width="90" height="30" as="geometry" />
        </mxCell>
        <mxCell id="R4-yauR0pbxx5bf5QKKg-1" value="Precio" style="text;html=1;align=center;verticalAlign=middle;resizable=0;points=[];autosize=1;strokeColor=none;fillColor=none;" vertex="1" parent="KtAOR1NpKuT5bWM6tSqL-1">
          <mxGeometry x="60" y="110" width="60" height="30" as="geometry" />
        </mxCell>
        <mxCell id="R4-yauR0pbxx5bf5QKKg-2" value="Img" style="text;html=1;align=center;verticalAlign=middle;resizable=0;points=[];autosize=1;strokeColor=none;fillColor=none;" vertex="1" parent="KtAOR1NpKuT5bWM6tSqL-1">
          <mxGeometry x="70" y="130" width="40" height="30" as="geometry" />
        </mxCell>
        <mxCell id="HhGgc7SGEXc1hb3WqnRq-1" value="ID_repuesto" style="text;html=1;align=center;verticalAlign=middle;resizable=0;points=[];autosize=1;strokeColor=none;fillColor=none;" vertex="1" parent="KtAOR1NpKuT5bWM6tSqL-1">
          <mxGeometry x="50" y="27" width="90" height="30" as="geometry" />
        </mxCell>
        <mxCell id="HhGgc7SGEXc1hb3WqnRq-31" value="ID_categoria" style="text;html=1;align=center;verticalAlign=middle;resizable=0;points=[];autosize=1;strokeColor=none;fillColor=none;" vertex="1" parent="KtAOR1NpKuT5bWM6tSqL-1">
          <mxGeometry x="45" y="160" width="90" height="30" as="geometry" />
        </mxCell>
        <mxCell id="HhGgc7SGEXc1hb3WqnRq-18" style="edgeStyle=orthogonalEdgeStyle;rounded=0;orthogonalLoop=1;jettySize=auto;html=1;entryX=0.5;entryY=0;entryDx=0;entryDy=0;endArrow=none;startFill=0;" edge="1" parent="1" source="HhGgc7SGEXc1hb3WqnRq-2" target="HhGgc7SGEXc1hb3WqnRq-14">
          <mxGeometry relative="1" as="geometry" />
        </mxCell>
        <mxCell id="HhGgc7SGEXc1hb3WqnRq-2" value="Categoria" style="swimlane;whiteSpace=wrap;html=1;startSize=23;" vertex="1" parent="1">
          <mxGeometry x="490" y="70" width="200" height="120" as="geometry" />
        </mxCell>
        <mxCell id="HhGgc7SGEXc1hb3WqnRq-3" value="Nombre&amp;nbsp;" style="text;html=1;align=center;verticalAlign=middle;resizable=0;points=[];autosize=1;strokeColor=none;fillColor=none;" vertex="1" parent="HhGgc7SGEXc1hb3WqnRq-2">
          <mxGeometry x="65" y="80" width="70" height="30" as="geometry" />
        </mxCell>
        <mxCell id="HhGgc7SGEXc1hb3WqnRq-7" value="ID_categoria" style="text;html=1;align=center;verticalAlign=middle;resizable=0;points=[];autosize=1;strokeColor=none;fillColor=none;" vertex="1" parent="HhGgc7SGEXc1hb3WqnRq-2">
          <mxGeometry x="50" y="40" width="90" height="30" as="geometry" />
        </mxCell>
        <mxCell id="HhGgc7SGEXc1hb3WqnRq-10" value="1" style="text;html=1;align=center;verticalAlign=middle;whiteSpace=wrap;rounded=0;" vertex="1" parent="1">
          <mxGeometry x="220" y="140" width="60" height="30" as="geometry" />
        </mxCell>
        <mxCell id="HhGgc7SGEXc1hb3WqnRq-11" value="1" style="text;html=1;align=center;verticalAlign=middle;whiteSpace=wrap;rounded=0;" vertex="1" parent="1">
          <mxGeometry x="430" y="140" width="60" height="30" as="geometry" />
        </mxCell>
        <mxCell id="HhGgc7SGEXc1hb3WqnRq-12" value="1" style="text;html=1;align=center;verticalAlign=middle;whiteSpace=wrap;rounded=0;" vertex="1" parent="1">
          <mxGeometry x="430" y="180" width="60" height="30" as="geometry" />
        </mxCell>
        <mxCell id="HhGgc7SGEXc1hb3WqnRq-13" value="N" style="text;html=1;align=center;verticalAlign=middle;whiteSpace=wrap;rounded=0;" vertex="1" parent="1">
          <mxGeometry x="220" y="170" width="60" height="30" as="geometry" />
        </mxCell>
        <mxCell id="HhGgc7SGEXc1hb3WqnRq-14" value="CategoriaMarca" style="swimlane;whiteSpace=wrap;html=1;startSize=23;" vertex="1" parent="1">
          <mxGeometry x="500" y="370" width="200" height="110" as="geometry" />
        </mxCell>
        <mxCell id="HhGgc7SGEXc1hb3WqnRq-16" value="ID_categoria" style="text;html=1;align=center;verticalAlign=middle;resizable=0;points=[];autosize=1;strokeColor=none;fillColor=none;" vertex="1" parent="HhGgc7SGEXc1hb3WqnRq-14">
          <mxGeometry x="50" y="40" width="90" height="30" as="geometry" />
        </mxCell>
        <mxCell id="HhGgc7SGEXc1hb3WqnRq-17" value="ID_marca" style="text;html=1;align=center;verticalAlign=middle;resizable=0;points=[];autosize=1;strokeColor=none;fillColor=none;" vertex="1" parent="HhGgc7SGEXc1hb3WqnRq-14">
          <mxGeometry x="55" y="70" width="80" height="30" as="geometry" />
        </mxCell>
        <mxCell id="HhGgc7SGEXc1hb3WqnRq-19" value="1" style="text;html=1;align=center;verticalAlign=middle;whiteSpace=wrap;rounded=0;" vertex="1" parent="1">
          <mxGeometry x="540" y="190" width="60" height="30" as="geometry" />
        </mxCell>
        <mxCell id="HhGgc7SGEXc1hb3WqnRq-27" style="edgeStyle=orthogonalEdgeStyle;rounded=0;orthogonalLoop=1;jettySize=auto;html=1;exitX=1;exitY=0.5;exitDx=0;exitDy=0;endArrow=none;startFill=0;" edge="1" parent="1" source="HhGgc7SGEXc1hb3WqnRq-23">
          <mxGeometry relative="1" as="geometry">
            <mxPoint x="500" y="440" as="targetPoint" />
          </mxGeometry>
        </mxCell>
        <mxCell id="HhGgc7SGEXc1hb3WqnRq-23" value="Marca" style="swimlane;whiteSpace=wrap;html=1;startSize=23;" vertex="1" parent="1">
          <mxGeometry x="170" y="380" width="200" height="110" as="geometry" />
        </mxCell>
        <mxCell id="HhGgc7SGEXc1hb3WqnRq-24" value="Nombre&amp;nbsp;" style="text;html=1;align=center;verticalAlign=middle;resizable=0;points=[];autosize=1;strokeColor=none;fillColor=none;" vertex="1" parent="HhGgc7SGEXc1hb3WqnRq-23">
          <mxGeometry x="65" y="80" width="70" height="30" as="geometry" />
        </mxCell>
        <mxCell id="HhGgc7SGEXc1hb3WqnRq-25" value="ID_marca" style="text;html=1;align=center;verticalAlign=middle;resizable=0;points=[];autosize=1;strokeColor=none;fillColor=none;" vertex="1" parent="HhGgc7SGEXc1hb3WqnRq-23">
          <mxGeometry x="55" y="40" width="80" height="30" as="geometry" />
        </mxCell>
        <mxCell id="HhGgc7SGEXc1hb3WqnRq-28" value="N" style="text;html=1;align=center;verticalAlign=middle;whiteSpace=wrap;rounded=0;" vertex="1" parent="1">
          <mxGeometry x="354" y="410" width="60" height="30" as="geometry" />
        </mxCell>
        <mxCell id="HhGgc7SGEXc1hb3WqnRq-29" value="1" style="text;html=1;align=center;verticalAlign=middle;whiteSpace=wrap;rounded=0;" vertex="1" parent="1">
          <mxGeometry x="360" y="440" width="60" height="30" as="geometry" />
        </mxCell>
        <mxCell id="HhGgc7SGEXc1hb3WqnRq-30" value="N" style="text;html=1;align=center;verticalAlign=middle;whiteSpace=wrap;rounded=0;" vertex="1" parent="1">
          <mxGeometry x="590" y="190" width="60" height="30" as="geometry" />
        </mxCell>
      </root>
    </mxGraphModel>
  </diagram>
</mxfile>
